<mxfile host="drawio.corp.amazon.com" modified="2025-06-29T05:08:00.797Z" agent="Mozilla/5.0 (Macintosh; Intel Mac OS X 10_15_7) AppleWebKit/537.36 (KHTML, like Gecko) Chrome/137.0.0.0 Safari/537.36" etag="-sbEXw-ff-g5HIszSG8d" version="21.7.4" type="device" pages="2">
  <diagram name="Authentication Flow" id="credential-flow">
    <mxGraphModel dx="880" dy="739" grid="1" gridSize="10" guides="1" tooltips="1" connect="1" arrows="1" fold="1" page="1" pageScale="1" pageWidth="1169" pageHeight="827" math="0" shadow="0">
      <root>
        <mxCell id="0" />
        <mxCell id="1" parent="0" />
        <mxCell id="dev" value="Developer" style="shape=umlActor;verticalLabelPosition=bottom;verticalAlign=top;html=1;outlineConnect=0;" parent="1" vertex="1">
          <mxGeometry x="40" y="40" width="30" height="60" as="geometry" />
        </mxCell>
        <mxCell id="cli" value="Claude Code CLI" style="rounded=1;whiteSpace=wrap;html=1;fillColor=#dae8fc;strokeColor=#6c8ebf;" parent="1" vertex="1">
          <mxGeometry x="140" y="40" width="120" height="60" as="geometry" />
        </mxCell>
        <mxCell id="cache" value="Local Credential&#xa;Cache" style="rounded=1;whiteSpace=wrap;html=1;fillColor=#fff2cc;strokeColor=#d6b656;" parent="1" vertex="1">
          <mxGeometry x="280" y="40" width="120" height="60" as="geometry" />
        </mxCell>
        <mxCell id="browser" value="Web Browser" style="rounded=1;whiteSpace=wrap;html=1;fillColor=#e1d5e7;strokeColor=#9673a6;" parent="1" vertex="1">
          <mxGeometry x="420" y="40" width="120" height="60" as="geometry" />
        </mxCell>
        <mxCell id="oidc" value="OIDC Provider&#xa;(Okta/Azure AD/Google)" style="rounded=1;whiteSpace=wrap;html=1;fillColor=#d5e8d4;strokeColor=#82b366;" parent="1" vertex="1">
          <mxGeometry x="560" y="40" width="140" height="60" as="geometry" />
        </mxCell>
        <mxCell id="cognito" value="AWS Cognito&#xa;Identity Pool" style="rounded=1;whiteSpace=wrap;html=1;fillColor=#f8cecc;strokeColor=#b85450;" parent="1" vertex="1">
          <mxGeometry x="720" y="40" width="120" height="60" as="geometry" />
        </mxCell>
        <mxCell id="sts" value="AWS STS" style="rounded=1;whiteSpace=wrap;html=1;fillColor=#f8cecc;strokeColor=#b85450;" parent="1" vertex="1">
          <mxGeometry x="860" y="40" width="120" height="60" as="geometry" />
        </mxCell>
        <mxCell id="bedrock" value="Amazon Bedrock" style="rounded=1;whiteSpace=wrap;html=1;fillColor=#f8cecc;strokeColor=#b85450;" parent="1" vertex="1">
          <mxGeometry x="1000" y="40" width="120" height="60" as="geometry" />
        </mxCell>
        <mxCell id="dev-line" value="" style="endArrow=none;dashed=1;html=1;dashPattern=1 3;strokeWidth=2;" parent="1" edge="1">
          <mxGeometry width="50" height="50" relative="1" as="geometry">
            <mxPoint x="55" y="100" as="sourcePoint" />
            <mxPoint x="55" y="700" as="targetPoint" />
          </mxGeometry>
        </mxCell>
        <mxCell id="cli-line" value="" style="endArrow=none;dashed=1;html=1;dashPattern=1 3;strokeWidth=2;" parent="1" edge="1">
          <mxGeometry width="50" height="50" relative="1" as="geometry">
            <mxPoint x="200" y="100" as="sourcePoint" />
            <mxPoint x="200" y="700" as="targetPoint" />
          </mxGeometry>
        </mxCell>
        <mxCell id="cache-line" value="" style="endArrow=none;dashed=1;html=1;dashPattern=1 3;strokeWidth=2;" parent="1" edge="1">
          <mxGeometry width="50" height="50" relative="1" as="geometry">
            <mxPoint x="340" y="100" as="sourcePoint" />
            <mxPoint x="340" y="700" as="targetPoint" />
          </mxGeometry>
        </mxCell>
        <mxCell id="browser-line" value="" style="endArrow=none;dashed=1;html=1;dashPattern=1 3;strokeWidth=2;" parent="1" edge="1">
          <mxGeometry width="50" height="50" relative="1" as="geometry">
            <mxPoint x="480" y="100" as="sourcePoint" />
            <mxPoint x="480" y="700" as="targetPoint" />
          </mxGeometry>
        </mxCell>
        <mxCell id="oidc-line" value="" style="endArrow=none;dashed=1;html=1;dashPattern=1 3;strokeWidth=2;" parent="1" edge="1">
          <mxGeometry width="50" height="50" relative="1" as="geometry">
            <mxPoint x="630" y="100" as="sourcePoint" />
            <mxPoint x="630" y="700" as="targetPoint" />
          </mxGeometry>
        </mxCell>
        <mxCell id="cognito-line" value="" style="endArrow=none;dashed=1;html=1;dashPattern=1 3;strokeWidth=2;" parent="1" edge="1">
          <mxGeometry width="50" height="50" relative="1" as="geometry">
            <mxPoint x="780" y="100" as="sourcePoint" />
            <mxPoint x="780" y="700" as="targetPoint" />
          </mxGeometry>
        </mxCell>
        <mxCell id="sts-line" value="" style="endArrow=none;dashed=1;html=1;dashPattern=1 3;strokeWidth=2;" parent="1" edge="1">
          <mxGeometry width="50" height="50" relative="1" as="geometry">
            <mxPoint x="920" y="100" as="sourcePoint" />
            <mxPoint x="920" y="700" as="targetPoint" />
          </mxGeometry>
        </mxCell>
        <mxCell id="bedrock-line" value="" style="endArrow=none;dashed=1;html=1;dashPattern=1 3;strokeWidth=2;" parent="1" edge="1">
          <mxGeometry width="50" height="50" relative="1" as="geometry">
            <mxPoint x="1060" y="100" as="sourcePoint" />
            <mxPoint x="1060" y="700" as="targetPoint" />
          </mxGeometry>
        </mxCell>
        <mxCell id="msg1" value="aws bedrock-runtime invoke-model" style="endArrow=classic;html=1;" parent="1" edge="1">
          <mxGeometry relative="1" as="geometry">
            <mxPoint x="55" y="140" as="sourcePoint" />
            <mxPoint x="200" y="140" as="targetPoint" />
          </mxGeometry>
        </mxCell>
        <mxCell id="msg2" value="Check for valid credentials" style="endArrow=classic;html=1;" parent="1" edge="1">
          <mxGeometry relative="1" as="geometry">
            <mxPoint x="200" y="160" as="sourcePoint" />
            <mxPoint x="340" y="160" as="targetPoint" />
          </mxGeometry>
        </mxCell>
        <mxCell id="alt-frame" value="alt" style="shape=umlFrame;whiteSpace=wrap;html=1;fillColor=#f5f5f5;strokeColor=#666666;" parent="1" vertex="1">
          <mxGeometry x="30" y="180" width="1100" height="400" as="geometry" />
        </mxCell>
        <mxCell id="alt-text" value="[Credentials not cached or expired]" style="text;html=1;strokeColor=none;fillColor=none;align=left;verticalAlign=middle;whiteSpace=wrap;rounded=0;" parent="1" vertex="1">
          <mxGeometry x="70" y="190" width="200" height="20" as="geometry" />
        </mxCell>
        <mxCell id="msg3" value="No valid credentials" style="endArrow=classic;html=1;dashed=1;" parent="1" edge="1">
          <mxGeometry relative="1" as="geometry">
            <mxPoint x="340" y="220" as="sourcePoint" />
            <mxPoint x="200" y="220" as="targetPoint" />
          </mxGeometry>
        </mxCell>
        <mxCell id="msg4" value="Open auth URL (localhost:8400)" style="endArrow=classic;html=1;" parent="1" edge="1">
          <mxGeometry relative="1" as="geometry">
            <mxPoint x="200" y="240" as="sourcePoint" />
            <mxPoint x="480" y="240" as="targetPoint" />
          </mxGeometry>
        </mxCell>
        <mxCell id="msg5" value="Redirect to OIDC login" style="endArrow=classic;html=1;" parent="1" edge="1">
          <mxGeometry relative="1" as="geometry">
            <mxPoint x="480" y="260" as="sourcePoint" />
            <mxPoint x="630" y="260" as="targetPoint" />
          </mxGeometry>
        </mxCell>
        <mxCell id="msg6" value="Enter credentials + MFA" style="endArrow=classic;html=1;" parent="1" edge="1">
          <mxGeometry relative="1" as="geometry">
            <mxPoint x="55" y="280" as="sourcePoint" />
            <mxPoint x="630" y="280" as="targetPoint" />
          </mxGeometry>
        </mxCell>
        <mxCell id="msg7" value="Return OIDC token" style="endArrow=classic;html=1;" parent="1" edge="1">
          <mxGeometry relative="1" as="geometry">
            <mxPoint x="630" y="300" as="sourcePoint" />
            <mxPoint x="480" y="300" as="targetPoint" />
          </mxGeometry>
        </mxCell>
        <mxCell id="msg8" value="Return auth code" style="endArrow=classic;html=1;" parent="1" edge="1">
          <mxGeometry relative="1" as="geometry">
            <mxPoint x="480" y="320" as="sourcePoint" />
            <mxPoint x="200" y="320" as="targetPoint" />
          </mxGeometry>
        </mxCell>
        <mxCell id="msg9" value="Exchange code for ID token" style="endArrow=classic;html=1;" parent="1" edge="1">
          <mxGeometry relative="1" as="geometry">
            <mxPoint x="200" y="340" as="sourcePoint" />
            <mxPoint x="630" y="340" as="targetPoint" />
          </mxGeometry>
        </mxCell>
        <mxCell id="msg10" value="Return ID token" style="endArrow=classic;html=1;" parent="1" edge="1">
          <mxGeometry relative="1" as="geometry">
            <mxPoint x="630" y="360" as="sourcePoint" />
            <mxPoint x="200" y="360" as="targetPoint" />
          </mxGeometry>
        </mxCell>
        <mxCell id="msg11" value="Exchange OIDC token" style="endArrow=classic;html=1;" parent="1" edge="1">
          <mxGeometry relative="1" as="geometry">
            <mxPoint x="200" y="380" as="sourcePoint" />
            <mxPoint x="780" y="380" as="targetPoint" />
          </mxGeometry>
        </mxCell>
        <mxCell id="msg12" value="Validate OIDC token" style="endArrow=classic;html=1;" parent="1" edge="1">
          <mxGeometry relative="1" as="geometry">
            <mxPoint x="780" y="400" as="sourcePoint" />
            <mxPoint x="780" y="420" as="targetPoint" />
            <Array as="points">
              <mxPoint x="820" y="400" />
              <mxPoint x="820" y="420" />
            </Array>
          </mxGeometry>
        </mxCell>
        <mxCell id="msg13" value="AssumeRoleWithWebIdentity" style="endArrow=classic;html=1;" parent="1" edge="1">
          <mxGeometry relative="1" as="geometry">
            <mxPoint x="780" y="440" as="sourcePoint" />
            <mxPoint x="920" y="440" as="targetPoint" />
          </mxGeometry>
        </mxCell>
        <mxCell id="msg14" value="Return temporary credentials" style="endArrow=classic;html=1;" parent="1" edge="1">
          <mxGeometry relative="1" as="geometry">
            <mxPoint x="920" y="460" as="sourcePoint" />
            <mxPoint x="780" y="460" as="targetPoint" />
          </mxGeometry>
        </mxCell>
        <mxCell id="msg15" value="Return AWS credentials&#xa;(AccessKey, SecretKey, SessionToken)" style="endArrow=classic;html=1;" parent="1" edge="1">
          <mxGeometry relative="1" as="geometry">
            <mxPoint x="780" y="480" as="sourcePoint" />
            <mxPoint x="200" y="480" as="targetPoint" />
          </mxGeometry>
        </mxCell>
        <mxCell id="msg16" value="Store credentials (8 hours)" style="endArrow=classic;html=1;" parent="1" edge="1">
          <mxGeometry relative="1" as="geometry">
            <mxPoint x="200" y="500" as="sourcePoint" />
            <mxPoint x="340" y="500" as="targetPoint" />
          </mxGeometry>
        </mxCell>
        <mxCell id="alt-divider" value="" style="endArrow=none;html=1;dashed=1;" parent="1" edge="1">
          <mxGeometry width="50" height="50" relative="1" as="geometry">
            <mxPoint x="30" y="520" as="sourcePoint" />
            <mxPoint x="1130" y="520" as="targetPoint" />
          </mxGeometry>
        </mxCell>
        <mxCell id="else-text" value="[Credentials cached and valid]" style="text;html=1;strokeColor=none;fillColor=none;align=left;verticalAlign=middle;whiteSpace=wrap;rounded=0;" parent="1" vertex="1">
          <mxGeometry x="70" y="530" width="200" height="20" as="geometry" />
        </mxCell>
        <mxCell id="msg17" value="Return cached credentials" style="endArrow=classic;html=1;dashed=1;" parent="1" edge="1">
          <mxGeometry relative="1" as="geometry">
            <mxPoint x="340" y="560" as="sourcePoint" />
            <mxPoint x="200" y="560" as="targetPoint" />
          </mxGeometry>
        </mxCell>
        <mxCell id="msg18" value="Invoke model with credentials" style="endArrow=classic;html=1;" parent="1" edge="1">
          <mxGeometry relative="1" as="geometry">
            <mxPoint x="200" y="600" as="sourcePoint" />
            <mxPoint x="1060" y="600" as="targetPoint" />
          </mxGeometry>
        </mxCell>
        <mxCell id="msg19" value="Validate IAM permissions" style="endArrow=classic;html=1;" parent="1" edge="1">
          <mxGeometry relative="1" as="geometry">
            <mxPoint x="1060" y="620" as="sourcePoint" />
            <mxPoint x="1060" y="640" as="targetPoint" />
            <Array as="points">
              <mxPoint x="1100" y="620" />
              <mxPoint x="1100" y="640" />
            </Array>
          </mxGeometry>
        </mxCell>
        <mxCell id="msg20" value="Return AI response" style="endArrow=classic;html=1;" parent="1" edge="1">
          <mxGeometry relative="1" as="geometry">
            <mxPoint x="1060" y="660" as="sourcePoint" />
            <mxPoint x="200" y="660" as="targetPoint" />
          </mxGeometry>
        </mxCell>
        <mxCell id="msg21" value="Display response" style="endArrow=classic;html=1;" parent="1" edge="1">
          <mxGeometry relative="1" as="geometry">
            <mxPoint x="200" y="680" as="sourcePoint" />
            <mxPoint x="55" y="680" as="targetPoint" />
          </mxGeometry>
        </mxCell>
        <mxCell id="note" value="All credentials are temporary (max 8 hours)&#xa;No long-lived API keys are stored" style="shape=note;whiteSpace=wrap;html=1;backgroundOutline=1;darkOpacity=0.05;fillColor=#ffe6cc;strokeColor=#d79b00;" parent="1" vertex="1">
          <mxGeometry x="450" y="720" width="250" height="60" as="geometry" />
        </mxCell>
      </root>
    </mxGraphModel>
  </diagram>
  <diagram id="8IA1UpIBaAprU4XnQtO5" name="Diagram">
    <mxGraphModel dx="1730" dy="739" grid="1" gridSize="10" guides="1" tooltips="1" connect="1" arrows="1" fold="1" page="1" pageScale="1" pageWidth="850" pageHeight="1100" math="0" shadow="0">
      <root>
        <mxCell id="0" />
        <mxCell id="1" parent="0" />
        <mxCell id="rsjay3lbhoXX-Xk172yr-16" value="" style="sketch=0;outlineConnect=0;fontColor=#232F3E;gradientColor=none;fillColor=#DD344C;strokeColor=none;dashed=0;verticalLabelPosition=bottom;verticalAlign=top;align=center;html=1;fontSize=12;fontStyle=0;aspect=fixed;pointerEvents=1;shape=mxgraph.aws4.role;" vertex="1" parent="1">
          <mxGeometry x="-280" y="330" width="42.55" height="24" as="geometry" />
        </mxCell>
        <mxCell id="t2PGgAoK4YQfEfcYOo6Z-1" style="edgeStyle=orthogonalEdgeStyle;rounded=0;orthogonalLoop=1;jettySize=auto;html=1;entryX=0;entryY=0.25;entryDx=0;entryDy=0;fontSize=16;strokeWidth=3;exitX=0.25;exitY=0;exitDx=0;exitDy=0;" edge="1" parent="1" source="cD1-mEwKoekrQwpwTPXT-2" target="cD1-mEwKoekrQwpwTPXT-3">
          <mxGeometry relative="1" as="geometry">
            <mxPoint x="-460" y="294" as="sourcePoint" />
            <mxPoint x="-240" y="190" as="targetPoint" />
            <Array as="points">
              <mxPoint x="-460" y="176" />
            </Array>
          </mxGeometry>
        </mxCell>
        <mxCell id="rsjay3lbhoXX-Xk172yr-4" value="1" style="edgeLabel;html=1;align=center;verticalAlign=middle;resizable=0;points=[];fontSize=16;" vertex="1" connectable="0" parent="t2PGgAoK4YQfEfcYOo6Z-1">
          <mxGeometry x="0.3395" y="4" relative="1" as="geometry">
            <mxPoint x="-26" y="2" as="offset" />
          </mxGeometry>
        </mxCell>
        <mxCell id="rsjay3lbhoXX-Xk172yr-2" style="edgeStyle=orthogonalEdgeStyle;rounded=0;orthogonalLoop=1;jettySize=auto;html=1;entryX=0;entryY=0.25;entryDx=0;entryDy=0;fontSize=16;strokeWidth=3;exitX=1;exitY=0.5;exitDx=0;exitDy=0;" edge="1" parent="1" source="Pws9CLLkDYYooRLfkzEw-6" target="cD1-mEwKoekrQwpwTPXT-5">
          <mxGeometry relative="1" as="geometry">
            <mxPoint x="-210" y="420" as="sourcePoint" />
            <Array as="points" />
          </mxGeometry>
        </mxCell>
        <mxCell id="cD1-mEwKoekrQwpwTPXT-2" value="" style="shape=image;verticalLabelPosition=bottom;labelBackgroundColor=default;verticalAlign=top;aspect=fixed;imageAspect=0;image=data:image/png,iVBORw0KGgoAAAANSUhEUgAAAJAAAACQCAYAAADnRuK4AAAAAXNSR0IArs4c6QAAAIRlWElmTU0AKgAAAAgABQESAAMAAAABAAEAAAEaAAUAAAABAAAASgEbAAUAAAABAAAAUgEoAAMAAAABAAIAAIdpAAQAAAABAAAAWgAAAAAAAACQAAAAAQAAAJAAAAABAAOgAQADAAAAAQABAACgAgAEAAAAAQAAAJCgAwAEAAAAAQAAAJAAAAAALQfrHQAAAAlwSFlzAAAWJQAAFiUBSVIk8AAACXJJREFUeAHtnV1sHFcVx8+d2drbfFikxShKE7F2rCLkxjaiAcWxeUiD+kAf8hYhlKSoJQheUF94LLzw8YSoQPCIilAeQhWVFoEQKpDESWmrALbrpkL2ekNRmiiUlpLgddc7hzOBSNbm3tlZ78zNzsl/JMv2/Tjnnt/5+967s7PXRLhAAARAAARAAARAAARAAARAAAT8ETBpXVVGJyfCUvgEMx8kMruMoc1p+6JdbxNgoqYhvsJMf2ZDJ5dnZ07IiJtpRt1WQJVKpRwO7PoBEz9h5EpjFG0KToDpYtTkzy8vzMy2iyRRELF4goGdvxXdTLUzhHpdBGQ2umGa9OjSwtlzSZEFSZXxzAPxJBHSWxdvUTjkU9tHpgeTonQKKN7zxMtWUmfU6SYgk8dHNm+mp5OidAooKAVPioHEJS7JMOq0EOCjNDra54qm5KogpoNklQ8/31xb/Upt4bUrzr6oKBaBkZH+oU3bD0u6fyJzRsukYgaGS9s+VSWasQXV0nh9E7Nz/W+3foZ4bpFQ9H1xcXV5buanZMyvbVEZtmshbusUULyJshnDzGOjoqPMML1tiySiaIutPC5zCsjVAeUgsJ6Aew+0vlW6n4OhhyYPBiac4IDK6bqglS8C8g5C0zDX3ltZe/Gfi6+8b/Mrr7pl4bFufG3Nb5ZlIqCdD+57oK8cPi8bsIdjq50NwTk2VGRI4OYLapHHtk197wyM7/tCbfbl32RhPoslLOgvh7+4JZ4sBgUbORIwdH9A4amdo/tGWr3I7CNvi3V2dS2gyvi+z8ru/ZOduUXrO0lAhLKpv1T6WhZj6FpAQRROZDEQ2PBLQPZEmeStawHJhgcbZr+5z8abMf1ZGMpkE20biLybe4Y4+oOtDmX+CMiN5R3yR/5kXh5zExAR/746f+6beQ0cdtMRGB6d3GtKYW4C6n4JSxcHWiklAAEpTayvsCAgX6SV+oGAlCbWV1gQkC/SSv1AQEoT6yssCMgXaaV+ICClifUVFgTki7RSPxCQ0sT6CgsC8kVaqR8ISGlifYUFAfkirdQPBKQ0sb7CgoB8kVbqBwJSmlhfYUFAvkgr9QMBKU2sr7AgIF+klfqBgJQm1ldYEJAv0kr9QEBKE+srLAjIF2mlfiAgpYn1FRYE5Iu0Uj8QkNLE+goLAvJFWqkfCEhpYn2FBQH5Iq3UDwSkNLG+woKAfJFW6gcCUppYX2FBQL5IK/UDASlNrK+wICBfpJX6gYCUJtZXWBCQL9JK/UBAShPrKywIyBdppX4gIKWJ9RUWBOSLtFI/EJDSxPoKCwLyRVqpHwhIaWJ9hQUB+SKt1A8EpDSxvsKCgHyRVuoHAlKaWF9hQUC+SCv1AwEpTayvsCAgX6SV+oGAlCbWV1gQkC/SSv1AQEoT6yssCMgXaaV+ICClifUVFgTki7RSP6W84jKGxofGpo7mZR92UxMYTt1yAw1zExCRORQYOrSBMaFLgQh0vYQxmUaB4sVQ/0/AEGWSt64FFER8EVkpHgGO+M0sRt21gJbqV35FzNUsBgMbfggwUVNmoB+1emNiKe7s6lpAtLi4ytw8REx/78w1Wt8ZAixLFx9fmp+50OrfkBFtdXZlsomuzr88Pzg6+vGt4X1HjOEJEVO5s2Ggdd4EZG6RWYeXP2jyibdeP79k8xfPQCIiW5WzLBMBxdavLSxcv0b0Y6cnVPQ8gY3MQN0vYT2PBQPMk4BTQMxUtzmuVCY+ZCtHWfEJyAZomy0K2Rmt2MrjMqeAZL28bOsUDGz5lpSHtjqUFZfA0Nj+aRn952wRNCOyaiFu69wDyabrtGynhlsNGmO+unts6oiUy5YHlwoCJn7RY3bYYolXonr471dtdXGZU0BRZJ4NA/qitaMxW6U8/sKlnYCJnrs6O3fDFaZzCavNnz3NzC+6OqJcPwGZfW40ufF0UqROAcWd1piOyb2BvyYZQJ1OAjJ5RGSio5fmXl1OijBRQH+bn3m3vrKyX4y9lGQEdcoIML1jmB+rzp471S6y1LcdK3um5fEMPi43mw7Izcr+doZRX0QC/IYsWyej968/U6v95b00EaQW0DpjZvfY5GCDgy3ryvBjgQmUIlqrrl65Gr+vWeAwMHQQAAEQAAEQAAEQ8EYg9SZ6x0N7d/UH5SPS4RF5FbZLRohNtLc05etI3iyVW358VR4G+hOzOVmdO5v6tk0aAQXDe/Z/g0zwdXGAB8XyzWVvWGc+HTWiY8sXz19qN6B2Agp3j089F39Ep50h1GsjwNeIowNLc+dfT4os8U708PjUtyGeJHya68wgU/jCfSOfHkiK0vlcj4jnQbnr/DPpnCiyJOOoKzYB2bJsu/cew+9efet3rkic4pCN1XHp5Hzcw2UQ5doIBF+WiJwTjVMg8njjo7YNkrxXcqZJjaeo0XhbG6q7Np57wnJo+g7LivOd2xgYur8yNvVwbW7mldvqpMApIBHPR20dog8axy69+cearQ5lhSbw3eGxqYPyxOkjrVGYiGMtWAXkXMLof08dttqiGsRzGxMtBTID2Z/9Cci5kXYLSAsVxJErAecSlqvXu9j4hz+2f+tAo37H/nDrdWpcvnzhP1mlAALKimQbO0N7Jj9jgvBZ2VtWqLypTev8qu+Vj0IMD06/1uTVw62Pq27ko8137C8hP0S9aTkIghM3xdMDw5Nx7A2p75nWocgeSF58d3ZhBuqM14Zabx+ZHpSOD2yoc06dRCyfyMI0ZqAsKLaxUe6vO2/EtemaX7XhTHKfiZH8ooTlXicAAfV6hnp8fBBQjyeo14cHAfV6hnp8fBCQjwTduBZ/SG/Nh6u0PuT1eianq0BAaYl30a5Wq9XlKYYfdmEi067yUXW56HutRuMbia1l7X7HfaB2hDKqlwfVn5KH9F6iiEblEb2OE5XRMORWIct5UeaM6/GMTv1AQJ0S66J9dXbml9I9/urJayN3orGE9WQqizMop4BkjcQhm8XJYyYjlY21t0M2sfRlkrLeMRIfsikbs8dsI8rlkE35Lz3/sDlDWfEIyH8XkPOePB+yKWrFIZvF04pjxAkvCrs5ZFP+58ULDo8ovgsIyD64u0M2G8yP45DNu0AplhBlQ93EIZsWMChKQUAO2YzyOWSTviTuD+CUjhRJKGQTXpBl6+d0feX71eqFf6UJIWH35Ox+85DNNVrb7GyBikIRCJt9TRyyWaiUYbAgAAIgAAIgAAIgAAIgAAIgAAIgAAIg4J3AfwH14hVTNTzklgAAAABJRU5ErkJggg==;fontSize=16;" vertex="1" parent="1">
          <mxGeometry x="-480" y="280" width="80" height="80" as="geometry" />
        </mxCell>
        <mxCell id="t2PGgAoK4YQfEfcYOo6Z-2" style="edgeStyle=orthogonalEdgeStyle;rounded=0;orthogonalLoop=1;jettySize=auto;html=1;entryX=0.75;entryY=0;entryDx=0;entryDy=0;fontSize=16;strokeWidth=3;" edge="1" parent="1" target="cD1-mEwKoekrQwpwTPXT-2">
          <mxGeometry relative="1" as="geometry">
            <mxPoint x="-280" y="220" as="sourcePoint" />
            <Array as="points">
              <mxPoint x="-420" y="220" />
            </Array>
          </mxGeometry>
        </mxCell>
        <mxCell id="rsjay3lbhoXX-Xk172yr-5" value="2" style="edgeLabel;html=1;align=center;verticalAlign=middle;resizable=0;points=[];fontSize=16;" vertex="1" connectable="0" parent="t2PGgAoK4YQfEfcYOo6Z-2">
          <mxGeometry x="0.1" y="-1" relative="1" as="geometry">
            <mxPoint x="70" y="-1" as="offset" />
          </mxGeometry>
        </mxCell>
        <mxCell id="cD1-mEwKoekrQwpwTPXT-3" value="" style="shape=image;verticalLabelPosition=bottom;labelBackgroundColor=default;verticalAlign=top;imageAspect=0;image=data:image/png,iVBORw0KGgoAAAANSUhEUgAAAJAAAACSCAYAAACqjkOzAAAAAXNSR0IArs4c6QAAAIRlWElmTU0AKgAAAAgABQESAAMAAAABAAEAAAEaAAUAAAABAAAASgEbAAUAAAABAAAAUgEoAAMAAAABAAIAAIdpAAQAAAABAAAAWgAAAAAAAACQAAAAAQAAAJAAAAABAAOgAQADAAAAAQABAACgAgAEAAAAAQAAAJCgAwAEAAAAAQAAAJIAAAAAV8e4fQAAAAlwSFlzAAAWJQAAFiUBSVIk8AAADFFJREFUeAHtXX1sHEcVn9k7XxyrCXGhbcqXYzsQR05tVFVpPmwppUKNKpRGKgJV0A9RKQIVhb9I+RAUqYgCRUitEEFCIBFaVLV/UFBBqapWUXNxPlpL+GLLSYjPcUwjpx84ISX+vB3eO99Fl7s3e3fr293Z3XeKc7tvZt5783s/z87uvFkLwR9GgBFgBBgBRoARYAQYAUaAEWAEGAFGgBEICQLScz+7u1PtidanpZQPgbE1nttjA0IpNQ0wHMjmpveJkZF5LyFJeKkcdbffuuFXlpR7gTzNXtti/UsIwC/rSvjZ0iqbV09fPH/QS1wsL5Wjbhx5vLbB+rUIeI699wTiy5Y2ul4XwC9vq9c2PCeQ1x1g/cEiwAQKFv/QW08G1YOxocPe3wEG1bkA7Hb29qsAzAoegYJAPUI2mUARCmYQXWECBYF6hGwygSIUzCC6wgQKAvUI2WQCRSiYQXSFCRQE6hGyyQSKUDCD6AoTKAjUI2STCRShYAbRFSZQEKhHyCYTKELBDKIrTKAgUI+QTSZQhIIZRFcCS+eopbNBpSjU4pufdUxOfeERyE8mRNAWEyiCQfWzS0wgP9GOoC0mUASD6meXmEB+oh1BW0bfhZl89xFBLrjqEo9ArmDjRkUEmEBFJPjbFQJMIFewcaMiAkygIhL87QoBJpAr2LhREQEmUBEJ/naFABPIFWzcqIgAE6iIBH+7QoAJ5Ao2blREgAlURIK/XSHABHIFGzcqIsAEKiLB364QYAK5go0bFRFgAhWR4G9XCBidzmFCUj2nlDjzikcgZ3y4tAoCTKAqAHGxMwJMIGd8uLQKAkygKgBxsTMCTCBnfLi0CgJG34XxHVCV6BlQzCOQAUEIswtMoDBHzwDfmUAGBCHMLjCBwhw9A3xnAhkQhDC7wAQKc/QM8J0JZEAQwuwCEyjM0TPAdyaQAUEIswtMoDBHzwDfmUAGBCHMLjCBwhw9A3xnAhkQhDC7wAQKc/QM8N3odA4D8KlwoW3Tlo2WTH5eWvIOqcQGIVWbUGKVkrJFKnVVSHFFKDmhpDitbPW2rRbfmBg+NlqhKCICJlANgWzfuK1NJuXXpZRfE1J2XGsi8Qj+W/oH33IVCFbB+cdBtBVI9oglmkRnT19WKfWcWlR/GB8dmLjWPgIHTCCHIH5q07bOpJX4oSXFV6Gae6yAdEC+H8mU+H57T//zi3buycnhgTEH06Ep4jkQFar161d09PT9uMlKDAN5Hl4Wea7Xn0R9qBf1C7BzfXH4zphAZTHDUaez5dYBGDGekFI0lxU35BT1on60g/YaojQgJUygEuDXberb0ZRIDMIc5vYSsXeHYAftoV3vjHirmQlUwHfdbdvuS1jyIEx+P1INciXECdsWTwrbvnfBVp2XZ+3VsAEgid94jnIsx3rVdKE9tIv2q9U1sRz89/aj299u0o4LHAEwiDDyaOckSolZuGX/PaD1bHYofaZW1Dp6+z4LdffCrf2jjpdEJeZyttp5bjh9qFbdpfWCwjn2IxDOQayEfNmJPPCc529qIdcFxPlWPeTBAGN9bIftUU9p0K87BvKiH2GbE8WbQHAXlLISL2ovW0rNK2F/cyxz+L7lPr/B9qgH9QnQex15CifoB/oTpruzWBOoo2Xt97QTZiU+VELemx068lsq2G5lqA/1wmj0IakDJtZ5v8hC84SxJdDSpUI+ToYkP/KI3dnM4dfJ8mUKUS9MsHfrRiJ4pP14WC5lsSUQPmHWTWqVVN/2ijxF7uVJBHaK56Xf6Bf6Vyoz9TiWBMK1rcLyRGVcYKLb6MtWpZElSd6OZmKN/qGfuramyGNJIFwYhQBUrG3hrbq9kNvrZ3DQXv4RQaXRZMHPyhKDJLEkkJDWg2QM4DnPcu+2SL0Owry9pedLFbXyq/8VUrMEsSMQ5vPAHKOdDMP8wjOk3Hvhs6QJWMVHf8kyQ4SxIxAmg1HY47JDdvT4v6gyr2X4sFG37KHz12ufatUfOwJhJiEFjrLFq5TcL5nOvs5fv/yqZid+BMI0VOJjCfsoIfZNpLOfT5v1zYv6DcWOQPkcZgKnBSFPE2LfRFr7mHNt8Cd+BFJyNRWPGXv6XUrul0xrX+OvX35VsxM7AsFuiZUUKO+NjMxQcr9kOvs6f/3yq5qd2BEIACEXMW/q7iaJVQ3ARpV/bMP2Fo0u0l9NXd/FMSSQukShvNJqvZmS+yVrScmbSFtKXSblhgjjRyAlpijsm4Qi786oul7IkkJ1UXohR+gCJTdFFjsCwVPoIQp8W1hbKblfMiWsLRpbJzVyI8SxIxAsXJIEkpa4J8iI6OzbGn+D9LXUdvwIJBSZJAaXis0dG+/8TCk4fh1j4j3ap+wBsV6j5KbIYkeg8cyR07BP/RQZgFQTmeBF1m2skEwhUUJhQn7NO0Aa61Jt2mJHoDwsSr1IwgNbb/xO4srbA7ukP7Z6gZQbJIwlgWx7fj+Vj4yppFZTgk6t8ChoaA/tVqiHvOy8nxUFZgliSaBzI29NwRPe58lQSLGro3f7N8iyBgvzdsAepRbeN/Rn9JMqM0kWSwJhAGZzc0/AHOMqFQyp5DMdPf13U2WNkqF+tEPpQ7/m1Dwn1VPgmCK7MPzWJFzGfkL6I2UK7ope9opEefKAfnghVYqyL23x1DuZ4/+mykyTxXYEwkBkM7O/BBIdI4MixQ1SqH80+nKG+lAvbGi8gbSrxNGxk+mfkWUGCmNNICEGF2bsuS/DLtEPyNjkRyJrf2dP/1+Xe3eG7VGPFNZ+3cgDjxemYZfGA+DLIumPgcKYEwgWmuBSBhsJd+vmQ/mYwURXNiVOwQO/XxfetlFzKLE+tsP2MOqQE2ZUhvZzdu6Lfu8KqbkjmooVe6M09SIthod1aZiX7ILE9lfIW2ro/ZJcPgaHj3X09p/AHGZMQ8VMQkwGw3weTAnBVX1cmMW1NVyeuPaEGQ50HyDPDCxZ3D8xfHRAV8dUOROoEBncaty2aevdCSvxF9iP5ZjagaQAcsDSA76DVYgm60axure/JMZwoSo5cz5U79lK7TqXOULPxZwbB15aez8Dd9V7B3AEmLXn7oDryaT31pYswLukHwkrebAHTKAypuRv74XKlok9O4VL3f88U+6DYiaQDyBH2QQTqL7ovl9f9UJtJUbhFv2iq7aGN+JJdB0BytniS1LaU3BHdhfcl22GpYgu3GemlIQ3uypIypczUmIOszwHd1an4YnyMWWJQ9lM+gz8uYNDYOqWOsyFoioTqM4wYT4RNMGfhr76rk43jKnOlzBjQhFOR5hA4YybMV4HdgnTvRjbT2RMetl5eb9NwKfcJ+qcRyAKFZbVjAATqGaouCKFgOcEwhQFyjDLvEfAD+y9J5AQf/IeKragQeCARt4wseeT6PGrU/vaW9ZCOoR8CFax1zTMc8MUreve9jmRVLfYduLE+ZPpQEfdwshzIJub3uc1TJ4TSJw9OzcuzuKGPfyJ3OcTXZs/2pxKPQe/ITuxc5YlLrXf1rdn/GT6peV01uQ7xNJ+eX4JKzUWteP2nu0bmlesOFYkD/YPR1lY6nih0bnUpmLHBHIZmbbu7XdJIfHFnOvLVcDlGv5SgbUfUlm/W14WtXMmkIuIwsjzaDIpXwWitDo1B4I9BST6uVOdsJd5PwcKO0Il/ivbtuDvvv8ChpfvlIgdD4FE+zp7+9bAa2WgWfQ+TKA6YppIyN/A/KarjiaFqnIPpHtAzn70PnwJqyOmcMlyII9aAIpM6dRB2ygOQJwTrQt4PfL8cxdl7xQ5dSckkhn9Pp96+lVLXR6BakHJuc5ZIM3WsczAG9mR9Hmp7H44/6dzk+iUMoGWEUu4ZL05Oze3pZClmNcERHpXXJnZAaNSehmqQ9OUCeQ2VErBUsF/vvDOqRMV++qz2cHLs+/P3APz5oNu1YelHROozkjByAJ7AcUPxjLph8XICPn331HlhQuDV8cyM7AXXvM6vTrtmlqdCUREBv6uO7l9B+Y2M3DZ+sp45vBPiWaEaHBhbCj9AIxEvyMK86KEzFWMYLq6JsqZQERUgCh/LBfjLbpazO1wsUhqw2i1B0atpyt1qrdhzjRcLg/TeSJMzvrl66WL58+0rv00vMFM9oDNFOz9+jvsmb9/cuT4qFsfQOdrN978yQkY3W6HJdcVsH/slYU59eB/P5i84lYnt2MEGAFGgBFgBBgBRoARYAQYAUaAEWAEGAFGoA4E/g/2W1J4AxKyOwAAAABJRU5ErkJggg==;fontSize=16;" vertex="1" parent="1">
          <mxGeometry x="-160" y="156" width="80" height="80" as="geometry" />
        </mxCell>
        <mxCell id="FQteG190lbkhdekwupYP-1" style="edgeStyle=none;rounded=0;orthogonalLoop=1;jettySize=auto;html=1;exitX=1;exitY=0.25;exitDx=0;exitDy=0;entryX=0;entryY=0.25;entryDx=0;entryDy=0;entryPerimeter=0;strokeWidth=3;" edge="1" parent="1" source="cD1-mEwKoekrQwpwTPXT-4" target="gm_a22qcVu_XCSZFJxcc-2">
          <mxGeometry relative="1" as="geometry" />
        </mxCell>
        <mxCell id="FQteG190lbkhdekwupYP-6" value="4" style="edgeLabel;html=1;align=center;verticalAlign=middle;resizable=0;points=[];fontSize=16;" vertex="1" connectable="0" parent="FQteG190lbkhdekwupYP-1">
          <mxGeometry x="-0.0083" relative="1" as="geometry">
            <mxPoint y="-1" as="offset" />
          </mxGeometry>
        </mxCell>
        <mxCell id="cD1-mEwKoekrQwpwTPXT-4" value="" style="shape=image;verticalLabelPosition=bottom;labelBackgroundColor=default;verticalAlign=top;aspect=fixed;imageAspect=0;image=data:image/png,iVBORw0KGgoAAAANSUhEUgAAAJIAAACSCAYAAACue5OOAAAAAXNSR0IArs4c6QAAAIRlWElmTU0AKgAAAAgABQESAAMAAAABAAEAAAEaAAUAAAABAAAASgEbAAUAAAABAAAAUgEoAAMAAAABAAIAAIdpAAQAAAABAAAAWgAAAAAAAACQAAAAAQAAAJAAAAABAAOgAQADAAAAAQABAACgAgAEAAAAAQAAAJKgAwAEAAAAAQAAAJIAAAAAg/sougAAAAlwSFlzAAAWJQAAFiUBSVIk8AAAE5FJREFUeAHtXQeYFEUWfjOzs3E277IEMYCKOXCeYjpzFiOimBFRUQQMoJgAs5jgvE8wYk6fp6iYc8SAOXEKBsKysDmHSfdeL11bPWl7Zrt6urfrfd9sV1VXV3j1b1d11QsAkiQHDOCAi8pYudvRYQPKkkU4lAPDly1xuR3ad9ltgzkggWQwQ51anASSU0fe4H5LIBnMUKcWJ4Hk1JE3uN8SSAYz1KnFSSA5deQN7rcEksEMdWpxEkhOHXmD+y2BZDBDnVqcBJJTR97gfksgGcxQpxYngeTUkTe43xJIBjPUqcVJIDl15A3utwSSwQx1anESSE4deYP7LYFkMEOdWpwEklNH3uB+SyAZzFCnFieB5NSRN7jfEkgGM9SpxUkgOXXkDe63BJLBDHVqcRlmdjxnz5GQd8Be4B06CNx5uWZW3e/qCja1gP/vNdD67qfQ8c1Pae+fKUDKQOAMmH0JZO+0bdo73K8asMcuUDj2aGj7/BuonjMfgjV1aeue8KnNO3xTGPLQ7RJEAoc4d9RIGPzQXMioKBdYS+Kihb6RXNlZUHHbVeApLtS0ouvP1RBqatakyUhyHPAUF4F308HsIe/gChhwywyonHgFQDDE0s0KCAVSAb52MzcbwvrS9fda2HDVbdD1258sTQZS50DWjttAxc0zIGNg95soG+O+w/eHllffS73QFJ8UOrUVnjyaNSvU2gZVk6+VIGIc6Xug88flsG7qbAj7/awwnucs0YSAMCDR2ihjQCnrQtOLb0KgqprFZcAYDvj/WAUtb33MCsvcZji4iwpY3KyAOCAN7Zm/qTPtS78xq0+Oq6f9y+9Yn10uF3g3GcTiZgWEAclTqP2vCNY1mNUnx9UTrNXy1tOf3kjgVozBsUENh83/kmCV9/dAJG8jeG9G94V+tZnRASPqcBf4wOW1NivCgSCEGq27ZWJt7hmBkkRleDwwcP4syN1j10S5LHOvg77SJl0D4c5Oy7RJbYiwNZJagZWv2TtvaxsQER9pnyhnr5GWZKmjgWTHg2N3TrYlgeTsqS1iSJpffhv8qysjUtMb9ZSXKgez6W1F77VLIHE8annzI+D3ZLhbaQtmbrulLYDk6KktbejohxXLN5KBg+rdYihkbT0MPKXFALiNFqxvhK6Vf3efL4ZFOlfQ7tkZ2CXdRUkg6WZV7IyurCwoPGU05J94BHgHDYiZiXb1af3V8Nh/IdTcGjOP3RMlkPowgrn77g5lMy+EDFwQJyJPSREUnX2SAra6eQ8roEqUP/l7It92+lojgaSPT1G5is4aA8UXnQl0SKqXPPk+KL92CmSOGAa1t9+n9zFb5DMNSCT0H9x+hKWYkrn1Fim1J//4w6Fk8lmaZ0MtbdC85B1o+3QZBCrXQxilFEngLHfUruAbfTBk0LppI5Gcdai1HervfUxN0n3NHrkjuDK0w+YdNlT386IyalskqhYst+T80wSWbl7R9DleNuMCTYUtb30ENXMXRp2FBdZWQcfXP0L9Q89CCb69Ck85hj1XPP4k6PxpObR99CVL0xMoOPYQAPpZjOTnf5IDUjr1HHwjeNhTjU+/DBuuvj0KRCwDBsIdnVB75wNQe/dDfDKUTp0AgOd9/YEkkJIYxeyRO0DOP3ZkT3R89zOC40EW7y3Q+NRioE1PlUh433f4fmrU1lfTpraqGTdDYPU6SzGLgFE2/XzdbfId9i9N3tr5i/B1k9wXU+09iyDvoL3ZW8136L+SEtavu/dxaPtYOx1m7TgCyq+arGmb2RHTgORftRb8K1eZ3b+E9WXE2feJ91D2LtuzW3Qm1/nT/1hcbyC4vgY1Y3+EnN13UR7J3mU7vY8q+QLrq6FrxV+aZzwlWnUvzU2TInJqS4LRpGquUsdPv6nBpK/8s+7cnO6d8KRLsdYDEkh6xwMXxS6vl+UO1mvlpNkNHYHIZ10WFQ3R0RWWRQKJsaKXQBBFXVE3TyWPL08NJn1148YkT6HGJj5qy7AEUhLDxuvlZW23VRJParNmc8+G2tr7xfmbBJJ2jBPG2pf9wO5nbrk5ZG61OYvrDdC5Ww5aEVGp/avv1aCtrxJISQxf63ufaXKXXDxeE9cTKZ50umatFVmmnjKsmEcCKYlRIYNWHd//yp7IRcNhReeewuK9BfKPORgKjjuMZfPjEQq/Qclu2DAggZTkoNFONumYqURniGVXTAIy4ROX8IuvmPJdM0WTpXYeHpngIr4/kGkbkrGY5cI9FHd+6l8/scpU08JdfgihhKLR1Pnzb9Cw6DkonjiOFV0w5kjI3X9PaF78JrQt/RoVCHAHH3e8yWZRzu47A0kLUJinppfegrYPPueT+hDWL8rSh0oSPppWINEAlF58dsIGpnqTzsEqJ16Z6uMxn1ME1CacDPnHHhp1P6OsGIpxmqOfHso/8gAlW/19T0Kwuk7PIwnyJHdMk6CglG+lFUgptzoNDxLoSRTE3Yf9I77ZtLlZgICk87v6hU9C41MvJX1ux5eX7rAEUi8jQMApR0OqefvtEZUz1NGBVmU/U+wG5OHU5srs2fnmM9OaShF421ADeQfupRFyc2dnQ+m0CZC7zz9h/czbINRgz83JtAKpA/dlauc/zPPcsHAAB62v5CkrgUH3XA+ZW26mKSpQWw8NDzwNza9/AGHcUCSixTYdwGYO36zbZiaK4AYRFH60l9nx7c9sV5zkkugtRFOgl7MhlbPbTjBk0Z1QecFMoIPd5Mjha6TOX34H+lmR3GhAdfD9t2gGO4wL6MYnF0P9g09DGEVleSLhtfbPv1V+fHpUGL/SWl57X7GyVnTGCVB83jgmOuvdZCAMXnhLCmBK/xpJfv5HjTS+XXCKGjR/tgZEdM62/vIboQ7foJEgilFE70mBgPL1VzlhBgQ4+9gKmBbcJOxrtveGpZZDAikG30ovmwhZKJutUhDtEq2dMD1p+Wr1+URXeiNXjr8c/KgwoBJNeeVzLlWjtrimdY1kRQ7Rvk/BCUewpoVwyqq69HqhQnl0GLzuwqthyCN3gWq2Lw915vIO3gda3/kE/hh1HGsPhKxp+U6+kXqGCACF+ktnTOJTFO2Qzh+Wa9JERAJr16MSwVzcxwxDqL0Dav+9CFrfX9pdFe1+q78kRXtFtDVWmfKNxHGFjJ3zBubJx0fLK+9wOcQG27/8HmpuvAfavvg2hS83sW3rrfS0AokUFLN22Ka3NkbdJ/cT9MpXKXvX7cG7xaZqVHPt+v1PIMPmesh36L4sWxjfADW3LmBxswJkI8COlFYg5aAzllSOSMjCBw8kUunh1zX8QDQ8+aJuILk4HbNWPAcjBUdJ+jgg10hx+NSEio+S9HNAAikGrwLVtSh39EuMOzIpHgfSOrU1kyjFh1/Ea1vcdN6JC2Wqv/8pPPSM/QYJpuDOi/T1JSXHgbQCiQyQG2GEnFwoRLpRSI4N2tydy1dqEyweU4y5ozUUlXjBOzVN9DWtQBLduVTL53eZUy0jlecyhlSgQ5rBQJqzLpQKAHQNQRbeaKrtWvE3OyCOLJtEgP864OTIZFPjEkgx2E3ehVSV6hi3EyZ1/PCrYn0kYaaNN8l1BdkBIMtvJDlAhrjiEW1U0lckHQzTRmU7Tb+0SWkRkkCKMRClU5LXDlGLWT32QkV0RI3Huno33wTI4hsZkIgnwxT5nOo+yztmEJCQHb2lyKRO8wtvMBGVyGfMjDsaSJGLdtGMJ08DxRecBgUnHQX8nlUq9ZLdSgJ80ZknQt09jwiwS5lcqxwNJHIS41+3Ia412uRYmTg3mdAZcBP6n0XZ7kgKo0iJouqEZ3q0Ex+oqce3TKsip0QSmt4hAxW7k2SbiQTneKJDXrJL6TvqQPQXPBc/Our526aFHQ0kkitaM24yZOMxjVFutni1bnUUC089DkqmnB31Fur6aw00PfOyotsWaolvNpnfjiDjXPmoG1eAmiluX65aBeQgUIc8MQ/Wz7hF904+e9iAgKOBRPwjMLXjIakoKj7vVI3qEtUTbGjE6ejRlKYj/6pKqEPJgAa0S0m6cgVje6bJDBINvvcGqJo6R3nDiepTrHLlznYsrhiUVjR+bBSI2j77GlaPmZQSiPhmkcRm7V0PQOU509Hp9AZ2i5QJBs6bBeTK3UwSBqRQU4umH4k+bTUZ+0mEtEJIz58nOkCumjbHkE1YtVySsFxz+iVA2w4qkSuuirkzcT+qSE0SfhUGpMi1QrIm7oT3XGAFHnRTP+CGyzTG3Ml9BFn9T9bmpJ5mkn2ldVNmQQdnipCmuQE3TdfzuCF5hAGpc/kK4BeQBWNwLkcVbSdQ6aUTNYqULe9+qnyii+w7rfWqpl0PAU6ViVSc6GvODBIGJEDL981L3mV9yKgog4pbrwQ7em1kndARIJlvH+5Wq+Rfsw6q58xTo0Kv9GYiJcswJ9ddMhm/Fk34Bxb61dbwyPPgO+IA8BTmKwwkMzBDFz+gaJ1GrqGEctjowvG4Ip59bXJewxN5BAijDLZZRNKgtNtNu99EtG9F4UacWkWSoqK5crejhWnY5e69G1TccTVTAhTZGbPKpnOvP3fvcQeh1kvOajZ5Yr4aBZL5rrp4FosbHaBzulacNiOJzvA2feVhIIu5RIENtbBq9DkgSgNl+LIlLnFT28bekc571WU3Kk7wNib124vviP01fWt8/AVN3MhI2dWTlaVC6SXnRhVLb3vS5lUpAxf/NOWKJOFAosa3097JiedD3YIngGR9eOuwIjtndtl5++3JqiRRFNIKEUEEItXyW+Gpx0IsMDU+/6qm6rz9RmniRkeErpH4xpJcTcPDzyo/Pr2/hDPwPIzUrVUyzoiWWmL3lQeResfPbUiyNPSyQKYF6ZyOKFWxGLW83q6mvJF6a0R/uJ+F6yOeeAu4fHpfwmXXXMzeRGo5Nbi7HU9RoX1Zj8gwndEZZdtJrZu/SiDx3OhDmMwl89T52x98tM9hBUQRluJq7rw/LoiowkhLLwQmUSSBZBBnPaU9xxEkFpK8jaP4DYkLomdeif8Q3gmi8BtPHtzLE0USSAZxlt9oJbekiahw3LFQMu2cRFnYvVRBRAVEyiaJnNpMW2wzzvTTgCsrk/WMLOrGI5JNKr0EPUcSoVW3ugivkt03uv+SOWXF9SiXqExnvbyJWHa39j2RhB9nVoTegLYmvU/JfFEcoK9SleKZfM7aYUQPiDBzkQKq6H0gKicmiO7ANZFeEGEZ7lzUROGITPSIIgkkgzjLK2KSGIcrK9qAOzkKrENzyDzF2geKC6JnE6+J+HIpHClGEqxrjMxiWFwCySBWkn0jnuI5vGl48BmoW/gEnxUYmHDuIfnrqOmM3kRJgogqyNx6mKYeka5g5RpJw+rUI5Gf2lnbbx3XVSmJyRKVXNAj+EZgysFD7cwthmoaUXP7fdD03BJNmt4I7wqMzBeSG1NRJN9IBnGWtD/4RXYsu9x8VQQmOjLiyUgQuQsLIHvn7Vjxoo1iSCAxVvctQCAiPyQqkfoRv7ekpvNXOjKKBJN6vy9vIirDd8g+zJM3xds++YouwkgCyUDWtr79CSuNFCDpU783UsCELth5IhmmVKczpRxca5ESpkqkCNr63kZ7lGqiwVe5RjKQoa0fLAXyCpBR2q0ESQJlDShK0ptbCPK2ROsXUhggS3R9dQboQ4c5mcN6TCGSzJJov7nyjWQgkMKdXYpnALVIEiwrm36+Gk14Jfkh0pTtK4hoD6tk0hmsLhLCa3hUrHQkVSaBxFhuTKDp+dcUiUS1NDIUkYc/s6j8uqlA8vEqEUC7VvylRoVdJZAMZi3JZ9fc/B9NqTS4tKstmorGnwTkpUklmmZJK9cMkkASwGUSL+bNHLvxHE7RfhUIJuUg+MIzWW9oSqu+7i4I1jWwNJEBCSRB3K2+9V4gL5YqkSbNoAU3Kv7a1DRDrvh1SL5TSi89V1McfQ22f/mdJk1kRAJJFHf9Aai6/GboQn9tKpFefsVtM6F81jRDpBXJxM2QR+6AwlO0Gi1NL7yueKVU6zXjKlwdyYxOWLkOUg0aePd1kL3TtppmBlHTg3y/0RlassoQXjxGKTzteMgffRC4IkRFyKWp4r0bpzaziNSRJJBM4DbJKpXNvAjyY6hPh3DLoB3XVPTZ34EevAOomRtFHrdyAEv2E3wH7YNHH1pQUn4qh7xTNr/4RtTjohMkkERzOKL83P1HQflVk7tdlUbcU6P0dqIFckjxUBnGvEXdVm7RmXI8IgBWz74b/Gi4Kx1EQJI72yZynlSUVn/1AxSMO0YRHYll6odEdnmx3UTNI7sC5KG75c0PE2Uz5Z6c2kxhc3QlBBbaqCSPTHTAG7nWiX6iOyWEzpjJRHITek1oX/qNEDM58eqOly6ntnicMTndjQZFSXYoa8RwPCMbCu6C/G77kGhVhKY48nnr/2M1aimvQINay1GZP2ByCxNXJ6e2xPwx7S4d6pJaO/3sSnIfya4jZ7F2SyBZbEDs2hwJJLuOnMXaLYFksQGxa3MkkOw6chZrtwSSxQbErs2RQLLryFms3RJIFhsQuzZHAsmuI2exdksgWWxA7NocCSS7jpzF2i2BZLEBsWtzJJDsOnIWa7cEksUGxK7NkUCy68hZrN0SSBYbELs2RwLJriNnsXZLIFlsQOzaHAkku46cxdotgWSxAbFrcySQ7DpyFmu3BJLFBsSuzZFAsuvIWazdEkgWGxDZHMkBR3Pg/2TVAYaDp57gAAAAAElFTkSuQmCC;fontSize=16;" vertex="1" parent="1">
          <mxGeometry x="-160" y="280" width="80" height="80" as="geometry" />
        </mxCell>
        <mxCell id="rsjay3lbhoXX-Xk172yr-3" style="edgeStyle=orthogonalEdgeStyle;rounded=0;orthogonalLoop=1;jettySize=auto;html=1;fontSize=16;strokeWidth=3;" edge="1" parent="1" source="cD1-mEwKoekrQwpwTPXT-5" target="cD1-mEwKoekrQwpwTPXT-2">
          <mxGeometry relative="1" as="geometry">
            <Array as="points">
              <mxPoint x="-460" y="460" />
            </Array>
          </mxGeometry>
        </mxCell>
        <mxCell id="rsjay3lbhoXX-Xk172yr-10" value="8" style="edgeLabel;html=1;align=center;verticalAlign=middle;resizable=0;points=[];fontSize=16;" vertex="1" connectable="0" parent="rsjay3lbhoXX-Xk172yr-3">
          <mxGeometry x="-0.6167" y="1" relative="1" as="geometry">
            <mxPoint x="-83" y="-1" as="offset" />
          </mxGeometry>
        </mxCell>
        <mxCell id="cD1-mEwKoekrQwpwTPXT-5" value="" style="shape=image;verticalLabelPosition=bottom;labelBackgroundColor=default;verticalAlign=top;imageAspect=0;image=data:image/png,iVBORw0KGgoAAAANSUhEUgAAAJAAAACSCAYAAACqjkOzAAAAAXNSR0IArs4c6QAAAIRlWElmTU0AKgAAAAgABQESAAMAAAABAAEAAAEaAAUAAAABAAAASgEbAAUAAAABAAAAUgEoAAMAAAABAAIAAIdpAAQAAAABAAAAWgAAAAAAAACQAAAAAQAAAJAAAAABAAOgAQADAAAAAQABAACgAgAEAAAAAQAAAJCgAwAEAAAAAQAAAJIAAAAAV8e4fQAAAAlwSFlzAAAWJQAAFiUBSVIk8AAAFY9JREFUeAHtXQe4FEUSrkdGMkiQnKMiPJKIRIlPDHiKIsn0nXoqgicIhjNwiqKcGM7D8OkpegiYOAUUJKso4QGSBclIEgRJCjy4+ufooXc2vJ2dsD27Xd/33qTunu6af7urq6uqiTRpDjjgQEbGB2POOMivs6Y5B/Kkeft18x1yQAPIIQPTPbsGULojwGH7NYAcMjDds2sApTsCHLZfA8ghA9M9uwZQuiPAYfs1gBwyMN2zawClOwIctl8DyCED0z27BlC6I8Bh+zWAHDIw3bNrAKU7Ahy2XwPIIQPTPbsGULojwGH7NYAcMjDds2sApTsCHLZfA8ghA9M9uwZQuiPAYfs1gBwyMN2zpzyAzi9YmG6oWo+alCyb7t/ak/bn86RUBQrNnycP3Vcnkx5tdAkVy1/AqNFPRw7S5O0/Gn/Lft2rQC2DX4WUdOvpcUENGtu0A9UpVirqF9JgisoaWw9SCkB1ipakFxg4WRVr2mKCBpMtdoUkTgkAFc2X3xiqBtfNpPx58oY08OTpHPrnhuV0HqfpVak2lS10Xshz64UGk5Ujsa8DD6CB1RvSqMZtqULhImEtnfbzJhqybC5tYNkHlCcjgzqUrUy9WajWYApjV0I3AguglqUr0EuZHallmQvCGv7j4V8N4EzftTnsmbhhF0wrD+6jK+Z/QjuOHxFF6CNzIHAAKs9D0DPc4wzgnieDexSZDp88QSNXf0cvbsimk6dPy49inscLpufWLaYHVyyIWVa8DysWLkqlChSkvb8fo31/HI83m3LpAjONjzQtl7k5lYer2xfPoD38QezS6TNnaPbe7cbfX5bOijrMlchf0G7RIenLsk5qRIOWdGPV+iFDLnrMtzatopc2LKPfc06F5FH9IhA9UBZPyzG7ijUtv2PxTHpj00pX+Y2e6VTvIWaZr//0A9255Cvz2s5Jx3JVaPKlPak0gygarf/tAF254FPaeFZmi5ZOpftKa6IxLf+87TX0ebteYeA5duqk53xEz+QGNS9dnqZyG2KBB++pV7w0zep4PZUrGHum6Ead3CpDSQBhWj764na0qsfAMJ3OiZwcgizSk3+pQSD0Yu+06k6F8p6TFvb8fpRGr11Mg7Jn02sbV5D8Y6hyXjFDCRqEtqGO51qlSI3jnZZnliqnSI1jV+PqirWoQfEyZqLF+3dTt3kf0cGTf5j3Xvgxm+Z27G3KRVi7G/HD17T12G9mGlVPlOmBqhcpTt917kNv86/VqtOBkIkpNHododNRlaHWevW0aMUHfD89BDxIj/Y9sGKemRWzy6yKNcxrlU+U6YHGNg3X6SQ6LVeJ4TWLljCrs5GBsp7/ItHnPIuUqWaRc/nk+6qdKwOgSqwXEXSGhdd3tqzhbnxBQtNyUY4KxwwK1VXFWyfITkEgZYYwmV0wtbh10ZeBBw8AgLU1QbXZOqBeFAsB61An5xP5VTwqAyCZOe5MnuUSk3c+1bKc8m6rHlTSopCsy6Aa06S9WUmoD6bv2mJeq3yizBCmMpOc1O3TnRtpHSsI67OOB9SiTAVam3UzvbN5Da+rHaZGPEPrz8sysBYQNGnbetp89JC4VPqoDIBSqdeRvzh6E8y8ME0XIClfqAgNa9BCTmaebz36G923bI55rfqJMgDyklGXnV+J+lVvYL7iqTXf0/Zjh81rr0+WHNhjqCEm8VJGLHuk1Yd+oasXTAnU4mpaAKgBDx9/rtXYxAnWtPwEEF48b98OajD93zSsfgvDkkDWdWGIQ51eZa30CTaACxKlBYBU+SAHTvxOw1k1gRnWay26mNXq9900yg6okb+SszCTs/pEeQ5oACn/idSuYGCHsGOnTtFSFk4FBdmqT7QhiMfAAmjd4QPUYub7QeR5StVZD2Ep9Tn9b4wGkP88T6k3agCl1Of0vzEaQP7zPKXeqIwQLZtzyOcqcfvaynWoWanyjqsE955UoaQDCIZkcBRsKtk443w8mz1Aa7vToSdom/Mr0tD6zV35Xog1hD9N5ziQNAAVZi8FrAvh44pValEt2AT35cXPXpVrswfGEhrNXhjHbTrcofynG19G99ZpavjEi7Jz2GN11/Gj4jLpR9Rnx7HguksnBUA3Vatv9DqV2YUlFgFYj13Ymm6reaHRG/1n67pYyc1nWH1/q2VXggWgTHCfgWPgLnarSYR+YRdkmFu4RfhRjPtpBe39w743rVt1cFqOrwBqxYEQEPgJRyvtYPMKDFmwIR7FPYcMLpy/d0mW0ZsMXjaXvt+/y5rduBa9ziDudax+8/P37jDMZDc5MNT6eMeGhD1TI1Y4BW76AiAh56DnsX5Y9ArWYQofKtLwBuB9e/mNhJ7IKh/F6nXgY/Uy+51rcp8DngIolpwDz4sJ29YZ0S6sgjK69idWL6Q32df92YvbUh8ORiCAZ5WPXmFgPMJxEK2yDljlRq/jPstTq0TPgitcV6Uu/YMNxeWhSLAOQ1CsoUikE8dYQx9MRq0uMOjV0EO9wpHJnNLpG+43i3ASXMEsxOWTMgUK0RXsvNioRBkqwNHZIAp8tWcbreB4Rn6QJz0QPjjMN60k5Jx4hWGRH4Br/dUEiiR8W8GTLr1OQQbLExdeSoPqNg3xuxc8W8AWkHcvnU2r2EzWS/IEQBeVOD+kzpHknJAEcV4AeJ/s2BhRPnKz14mzOklLhuAT09tdS23KVopah7Ycym8hu4pf+/V/aeaerVHTOX3gyVKGVZMMv3bINHZ1OZEaJ+QjlCnTsBXzXRmy5DJVPX+zRdeY4BH1LsJAm9ymJ3npJu0JgEQDxPHwqRPiNOIRw9BdtS+mtjF+UdaM1jLthLSzlhWka/AIQUIFIaLZ0OXz6IIp46jw5Bep69wP6QdJ/inOToyjeCLiFXkyhNmpbOfyVY3oY4142EPDm345nlT1EcMaVrLDygyp2yyEvX0WTqUpO38y70GAbjtrIi3t2tdUpCIiLbxh5ZAyZgaHJ0kDEKKPjWGlouwT3pj3s7i95kWuh6pzyCMzey9eTMWfKrTkwO4Q8Ih6oXcezUtAr5/1/MjH2z5cwhObL3ZvEUlcO/oOIASqfIz1NnfXaRIWFBzrQojQpSk+Dqw+tD9qQjgpylQulwDrclo7574BCHLOHezc9yRPPctEWNGeuXsr3b98LsViip2GpUPaWD82q/7t4IlzEdHc5I0vALqc5RzECYScYyUjOhcLgdYAS9Z0KlxDt/LelrVJrcqtvLAs1hLb81T9Yh72rUpDzIKxHihT9q/nPFjk+07PfQHQsxww00oH2UvzSQ4KDm3xqTPxBwVHOQg2/iDHW5YJjF3ICkcvFWdr2QXZ7VDCchviOYcgPPGskjYvyzaIYtv/+y9oLse5BkHQfzmzU8g0H8D3KsK+LwCSGQM553Ve4/rbym9oP4PIDuXlYfAe/mU9wSYemJ7KhF9ldtd+DMhl9NiqhWSd5stpg3z+Ie93toh/KGKLh0osM87m0MA7eQnjEEfqR6whCM2CwO/hLkXXF2XKx3Nvku96dA45p8mM8axin2UbPNB/ACAIOG4Fj6guGDe4XjNan3WLsewh7qfSESqO3t9+HhYcAkBqyOthMnjQ7iEsV6Jn9op8ARDknKs4wirC29oVkjFcvcvy07xON9BFlm0rd7NlIZRo2AhFJkS+gP0QYvJgkTHVaBv3Npfy2uAs1vlEI+zBcQMDzY0F5WjvwH1fhrCbWNllN/pErOHqFHfLsO95/OxQNZbjLEca2tqVq0zLuvZPyWENJjBdWOuMnvm6ynWNHwoWWBG2BsrEidvX01Efovn7AqBYCI72DOH+R/KUv+jZ/U5FOqy23509K6Qny2GTjhcZRB+wfdFzLLD345BxgsSw9hmH0Z1zVtAUz1LhuGDfTsJfssiXISyRxsFuGbM0QRiuEEenw5xJIeARz3HETj0DeEbSjlX58rA2kWMOpiJ45LYn61xZAIEhGJoAhLHrl1K9aW8bpqzxMOrrX3ZS5oz3jE3nfuau/q8sJ2nyhgPKDmFoLvRDzWa8b1tPhLxiWMN+qXb1TMgfidqx4m5c886RHrlyb/ORQ7xZXrD2DFMaQPgqTj++0/wyMhCqV4Trle+7ed6eBf8si62Tm+W7XZbSQ5jbjQ1Ced15c73hFi27yvXWAFLw62D2CTelIJAvQ1ixfAVc40W+jDx0HxuSv8ZhcY94rOeAW5JMXnplPHVRGxrRsJXxOqxxTWidRU3YuM7uco9cXz/OPemBrBaF2O7xsUatyfpB7DYQBmeLutxEz7G70PPS3hJ2y4kn/TVsxbemx83xJHUlzaOrvmV9zg6zLCxNjL+kh3mNHQ8R7xqGePLuh2aCJJ2E/sRcqsRKizFToj7uojrodR5q2JIe5l9ofta2ghA4HAuL0Lq6SbX5A2E1u9sF1d0sNtey4N/WZ+E0Wt6tvxkBBPLQv5pdbhjZdalQzWz7SQ5GPnvPdnpm7SIjgHmuhXuYIG/Gdd0ed7t8qNlX/7afWvMKubzwiXPE2OnOH2cVW9NZPVIj1QO9DnqwG9ktOi8DSRCYiC0EFkuRWsWzRI7oHRHI4X1eQ8Pmt5FoKdvUeGm3BAuCHw7+Qn0lF/DmpSsYGw7Lbcd57WIl6eYajdg4rxB9yYvU1l4/Uv29uOcJgFDRNQygcSynYN2qJTNB9Bx4Bmu522pcyN1xKVrEdr2RTC/Q6zzSqJXRjaM7l2k5R3W/ghdn3fqYGK4+Y7uaKyvVIsgf0chrAOG9iGKPNS34dcVDMOsozd6pydoeyjMAofHQwWCPCOw+WJ7XtuBwKPu4o3e5k4cigAtAEjqbWL3OSF7ewHJFoiFa5I+C4Qo9zsMM1JIFQu2LYEHQl5dO5HU1PwCE+oFHA6T1PNzDGiCUojCJAcCq8R6zggAiGJQlY5NeT2Qg0TBxxFDVn7c8emXj8rDwLrJ8hCgatXiPUVnWEWWg17mZdzGUfZ7EM7tHDFcPsTz1ANsOFbTMtODhit18nl+/hJLla2aNqDZs+XyjPqKdqNsD9ZrT6CbnLD2hO8KP1W/yBUCiUbF83DGsybMOkQeyDj7o02sWmT2UeJbIEcMVjNLkX7AoB2FlhnD8Ib938hHvxxHg7lSuqnkLPQ8AYyXcg0sUTFZAncpXMWZncDT0k3wFkGhYLB93kQZHN3udWLOrDTxc3Zs9m2bw8JBsqnZe8RCrwlhyHp4JAEEMqMLxJv3eFj0pAMJHEj7uiAGEIJty8Ck3ex0xXA3lLr9A3v+rAARI7A5XUB3I+46JcuI5IjQeDOtyMy/NselgEM+7vUwTfcrh5VulsoV8hJ2aBWEqC1sgIVSL+3aPGK7WsjIQMpUVPBiusAHcKNal+CHrYMhEOJbcCN4T+AEJkj13xT1xlJ8hz3bO6zclHUBeNBjDFcKffHzZVVRVmq3gXRiuurNt9nXffOa7rFOKp9u5EXpm2fgNQxQEZivhnhi+8AyKRb/lH7w3aUMYXi6TG4owMVx5NbvC1pTzbc50oDi1G1t6FE8YulaobrIHsy30NkIekoVnkQha6WSQMgBy2ngMV2N5dmXtcVDuJzxcIaSe09kVwIMwwXYIke3tAgjTcfi3wVFAEHobuccR93FE2mRM4fHuwAMoKLMrMNsOAfAgGUTGDcs/gEektTzy5TKwAPJ6uPKF+zFegsXVQdlz6KPtGwwDM+h5xHIQBGZVFlOVAZA1LF4M3vKiaobhpRpp0VMFZaBcdzvtkvOJcwxN+IMJB/Q8IMy2kiEwizrJR2VmYXaEaBjMf8CuOjIlc3Yl18N6bqdd1rzyNQADJSH+VAEP6qdMDyQzK55zzDr684YsFQoVSfraVTz1TdU0gQXQHywHwABrNzsgOp1dperH9aNdygxhiTR2MZuAqAoe7FM25bKrjQBQom0IBoV7eJYqFNgeSNUPAKF5DNtrI8yMleCnD6M1/MHbFh6zbslI1nf5da0B5DKnYSoyqG5mrqUCYIgbmUwdTq6VjCOBMgByOt2No61mEqxJnWAZyu3wJx3LVQkDD+x5oi1BAGifcoxnEZ7OrGCATpSRgfzqyvtWa0DreIX+7+yH5TY92KBFSJGwJEQ0ERh/4Q/nuCfTcEse+VkQzpUBkMwsL3qjWrxCP6P9nwyrx7Ic9eye2k1cjToPzTh6IEGxLAnxTBDyIG9QSUkAYdfmt1p2M6KxOmVsfhZcYQ+0svsA6sy+VYLgfTGKDdncoqpskiuWGlCmGLYilS8/Qx7kDSopAyDZRwxeCfB5+jHrVsMWBiBIhOBfDke9kTxcWb05x7OnCLwu3CKsXSVKTvIm+k638iX2Zdx6u1TO4GVzwjbTLcbh7WALs7L7QOrBXprxEoTkN3ifiHmderM7cJmQbFjy6DxnMg1k1yDswuwWBc2S0K12KwOgLWwzjF0Jb+EPi3B2MiH2MbxTEVQbvuGxSAjJt/GmLcIHDelP5OQQfMoaf/EuzfYgVmLQLAlj8dDOM+WkNzghfsQGYI/yhiz31ckMsWXOYqu8zuWrcRSvbAMMcnQOCMnwI5flHMEICK0wBFt3+IC45ckxSJaEbjHAs0133aggehso5gAcK6GXGsEb607gVXk44kFQtso5B3iIGso7Gb69ebU1e9zXdjfdfSmzY65GYOLlMAaDzU+QSbkeSGYmTBd6sg885B+Yq9bhoUwQgom/zQHIEUnDGgoYaSAkY6nAiZwDTbFdEppl1S0J7bYrWnqlASQqPX3XZg7jstUY0jC0QbgWZAUPhOS7eLhKVM4BaDpwYIPredtyGMTbpaBYEtptV7T0gQAQKg/fLWhzx29dYzgiIviALCSLBqLnWcBhfu2QFTRQNEYiO3tuqW5JGKl9idxTWgaK1SCEjIG8IXatkdMisgZ83NFzRSMBGmxgiz1Fo4FG5Ee8auwU7dW2SeI9QTsGFkCC0QO5J4JGGTKRlaax7ziAJPzFBWjE8JQbaDaxDDaZo6BN4j/Zc9b6nnS+DjyA8PGK8v7okab9eAb9z6scVgZhZOLpaRDgCaHzNGjAvdwpJQAkmhlr2i/SRDpq0ETiSnz3UgpAosmRpv3imThq0AhOODumJIDAEizAQpMtT/s1aJyBJVLulAWQaCw2oUWgAuyjvtyys6FIo4+JcyAweqBEm7iPlzPe35rcrboTrXsQ8imzGh8EZuk6hnNAAyicJ/qODQ5oANlglk4azgENoHCe6Ds2OKABZINZOmk4BzSAwnmi79jggAaQDWbppOEc0AAK54m+Y4MDGkA2mKWThnNAAyicJ/qODQ5oANlglk4azgENoHCe6Ds2OKABZINZOmk4BzSAwnmi79jggAaQDWbppOEc0AAK54m+Y4MDGkA2mKWThnNAAyicJ/qODQ5oANlglk4azgENoHCe6DuaA5oDfnHgf/Lwgi7wgmmhAAAAAElFTkSuQmCC;fontSize=16;" vertex="1" parent="1">
          <mxGeometry x="-160" y="400" width="80" height="80" as="geometry" />
        </mxCell>
        <mxCell id="rsjay3lbhoXX-Xk172yr-12" value="OIDC Provider" style="text;html=1;align=center;verticalAlign=middle;resizable=0;points=[];autosize=1;strokeColor=none;fillColor=none;fontSize=16;" vertex="1" parent="1">
          <mxGeometry x="-185" y="120" width="130" height="30" as="geometry" />
        </mxCell>
        <mxCell id="rsjay3lbhoXX-Xk172yr-14" value="Amazon Bedrock" style="text;html=1;align=center;verticalAlign=middle;resizable=0;points=[];autosize=1;strokeColor=none;fillColor=none;fontSize=16;" vertex="1" parent="1">
          <mxGeometry x="-195" y="490" width="150" height="30" as="geometry" />
        </mxCell>
        <mxCell id="rsjay3lbhoXX-Xk172yr-15" value="" style="sketch=0;outlineConnect=0;fontColor=#232F3E;gradientColor=none;fillColor=#DD344C;strokeColor=none;dashed=0;verticalLabelPosition=bottom;verticalAlign=top;align=center;html=1;fontSize=12;fontStyle=0;aspect=fixed;pointerEvents=1;shape=mxgraph.aws4.sts;" vertex="1" parent="1">
          <mxGeometry x="-540" y="298" width="46.8" height="30" as="geometry" />
        </mxCell>
        <mxCell id="QOjOULD6Z-SpW_eYRqwN-3" style="edgeStyle=none;rounded=0;orthogonalLoop=1;jettySize=auto;html=1;strokeWidth=3;endArrow=none;endFill=0;startArrow=classic;startFill=1;" edge="1" parent="1">
          <mxGeometry relative="1" as="geometry">
            <mxPoint x="-240" y="220" as="sourcePoint" />
            <mxPoint x="-160" y="220" as="targetPoint" />
          </mxGeometry>
        </mxCell>
        <mxCell id="QOjOULD6Z-SpW_eYRqwN-4" value="" style="sketch=0;pointerEvents=1;shadow=0;dashed=0;html=1;strokeColor=none;fillColor=#505050;labelPosition=center;verticalLabelPosition=bottom;verticalAlign=top;outlineConnect=0;align=center;shape=mxgraph.office.security.token;" vertex="1" parent="1">
          <mxGeometry x="-272" y="280" width="32" height="36" as="geometry" />
        </mxCell>
        <mxCell id="QOjOULD6Z-SpW_eYRqwN-8" style="edgeStyle=none;rounded=0;orthogonalLoop=1;jettySize=auto;html=1;strokeWidth=3;endArrow=classic;endFill=1;startArrow=none;startFill=0;entryX=0;entryY=0.25;entryDx=0;entryDy=0;" edge="1" parent="1" target="cD1-mEwKoekrQwpwTPXT-4">
          <mxGeometry relative="1" as="geometry">
            <mxPoint x="-230" y="300" as="sourcePoint" />
            <mxPoint x="-325" y="308" as="targetPoint" />
          </mxGeometry>
        </mxCell>
        <mxCell id="Tnx39qOfoG6dOgGpKGis-1" value="" style="sketch=0;pointerEvents=1;shadow=0;dashed=0;html=1;strokeColor=none;fillColor=#505050;labelPosition=center;verticalLabelPosition=bottom;verticalAlign=top;outlineConnect=0;align=center;shape=mxgraph.office.security.token;" vertex="1" parent="1">
          <mxGeometry x="-272" y="200" width="32" height="36" as="geometry" />
        </mxCell>
        <mxCell id="QOjOULD6Z-SpW_eYRqwN-11" style="edgeStyle=none;rounded=0;orthogonalLoop=1;jettySize=auto;html=1;strokeWidth=3;endArrow=classic;endFill=1;startArrow=none;startFill=0;" edge="1" parent="1">
          <mxGeometry relative="1" as="geometry">
            <mxPoint x="-400" y="297.5" as="sourcePoint" />
            <mxPoint x="-280" y="298" as="targetPoint" />
          </mxGeometry>
        </mxCell>
        <mxCell id="QOjOULD6Z-SpW_eYRqwN-14" value="3" style="edgeLabel;html=1;align=center;verticalAlign=middle;resizable=0;points=[];fontSize=16;" vertex="1" connectable="0" parent="QOjOULD6Z-SpW_eYRqwN-11">
          <mxGeometry x="0.3581" y="3" relative="1" as="geometry">
            <mxPoint x="-1" y="3" as="offset" />
          </mxGeometry>
        </mxCell>
        <mxCell id="QOjOULD6Z-SpW_eYRqwN-12" style="edgeStyle=none;rounded=0;orthogonalLoop=1;jettySize=auto;html=1;strokeWidth=3;endArrow=none;endFill=0;startArrow=classic;startFill=1;entryX=0;entryY=0.25;entryDx=0;entryDy=0;" edge="1" parent="1">
          <mxGeometry relative="1" as="geometry">
            <mxPoint x="-230" y="340" as="sourcePoint" />
            <mxPoint x="-160" y="340" as="targetPoint" />
          </mxGeometry>
        </mxCell>
        <mxCell id="QOjOULD6Z-SpW_eYRqwN-13" style="edgeStyle=none;rounded=0;orthogonalLoop=1;jettySize=auto;html=1;strokeWidth=3;endArrow=none;endFill=0;startArrow=classic;startFill=1;" edge="1" parent="1">
          <mxGeometry relative="1" as="geometry">
            <mxPoint x="-400" y="340" as="sourcePoint" />
            <mxPoint x="-280" y="340.5" as="targetPoint" />
          </mxGeometry>
        </mxCell>
        <mxCell id="QOjOULD6Z-SpW_eYRqwN-15" value="6" style="edgeLabel;html=1;align=center;verticalAlign=middle;resizable=0;points=[];fontSize=16;" vertex="1" connectable="0" parent="QOjOULD6Z-SpW_eYRqwN-13">
          <mxGeometry x="0.3748" y="3" relative="1" as="geometry">
            <mxPoint x="-2" y="3" as="offset" />
          </mxGeometry>
        </mxCell>
        <mxCell id="FQteG190lbkhdekwupYP-2" style="edgeStyle=none;rounded=0;orthogonalLoop=1;jettySize=auto;html=1;entryX=1;entryY=0.75;entryDx=0;entryDy=0;strokeWidth=3;" edge="1" parent="1" source="FQteG190lbkhdekwupYP-3" target="cD1-mEwKoekrQwpwTPXT-4">
          <mxGeometry relative="1" as="geometry" />
        </mxCell>
        <mxCell id="FQteG190lbkhdekwupYP-8" value="5" style="edgeLabel;html=1;align=center;verticalAlign=middle;resizable=0;points=[];fontSize=16;" vertex="1" connectable="0" parent="FQteG190lbkhdekwupYP-2">
          <mxGeometry x="-0.2742" y="1" relative="1" as="geometry">
            <mxPoint x="4" y="-2" as="offset" />
          </mxGeometry>
        </mxCell>
        <mxCell id="gm_a22qcVu_XCSZFJxcc-2" value="" style="sketch=0;points=[[0,0,0],[0.25,0,0],[0.5,0,0],[0.75,0,0],[1,0,0],[0,1,0],[0.25,1,0],[0.5,1,0],[0.75,1,0],[1,1,0],[0,0.25,0],[0,0.5,0],[0,0.75,0],[1,0.25,0],[1,0.5,0],[1,0.75,0]];outlineConnect=0;fontColor=#232F3E;fillColor=#DD344C;strokeColor=#ffffff;dashed=0;verticalLabelPosition=bottom;verticalAlign=top;align=center;html=1;fontSize=12;fontStyle=0;aspect=fixed;shape=mxgraph.aws4.resourceIcon;resIcon=mxgraph.aws4.identity_and_access_management;" vertex="1" parent="1">
          <mxGeometry x="80" y="280" width="80" height="80" as="geometry" />
        </mxCell>
        <mxCell id="FQteG190lbkhdekwupYP-4" value="" style="edgeStyle=none;rounded=0;orthogonalLoop=1;jettySize=auto;html=1;exitX=0;exitY=0.75;exitDx=0;exitDy=0;exitPerimeter=0;strokeWidth=3;" edge="1" parent="1" source="gm_a22qcVu_XCSZFJxcc-2" target="FQteG190lbkhdekwupYP-3">
          <mxGeometry relative="1" as="geometry">
            <mxPoint x="40" y="340" as="sourcePoint" />
            <mxPoint x="-80" y="340" as="targetPoint" />
          </mxGeometry>
        </mxCell>
        <mxCell id="FQteG190lbkhdekwupYP-3" value="" style="sketch=0;outlineConnect=0;fontColor=#232F3E;gradientColor=none;fillColor=#DD344C;strokeColor=none;dashed=0;verticalLabelPosition=bottom;verticalAlign=top;align=center;html=1;fontSize=12;fontStyle=0;aspect=fixed;pointerEvents=1;shape=mxgraph.aws4.role;" vertex="1" parent="1">
          <mxGeometry x="-1.0658141036401503e-14" y="328" width="42.55" height="24" as="geometry" />
        </mxCell>
        <mxCell id="Pws9CLLkDYYooRLfkzEw-1" value="AWS Identity and &lt;br&gt;Access Management" style="text;html=1;align=center;verticalAlign=middle;resizable=0;points=[];autosize=1;strokeColor=none;fillColor=none;fontSize=16;" vertex="1" parent="1">
          <mxGeometry x="42.55" y="360" width="170" height="50" as="geometry" />
        </mxCell>
        <mxCell id="Pws9CLLkDYYooRLfkzEw-3" value="" style="edgeStyle=orthogonalEdgeStyle;rounded=0;orthogonalLoop=1;jettySize=auto;html=1;fontSize=16;strokeWidth=3;" edge="1" parent="1" source="cD1-mEwKoekrQwpwTPXT-2">
          <mxGeometry relative="1" as="geometry">
            <mxPoint x="-420" y="360" as="sourcePoint" />
            <mxPoint x="-280" y="420" as="targetPoint" />
            <Array as="points">
              <mxPoint x="-420" y="420" />
            </Array>
          </mxGeometry>
        </mxCell>
        <mxCell id="Pws9CLLkDYYooRLfkzEw-7" value="7" style="edgeLabel;html=1;align=center;verticalAlign=middle;resizable=0;points=[];fontSize=16;" vertex="1" connectable="0" parent="Pws9CLLkDYYooRLfkzEw-3">
          <mxGeometry x="0.585" y="1" relative="1" as="geometry">
            <mxPoint x="1" y="1" as="offset" />
          </mxGeometry>
        </mxCell>
        <mxCell id="Pws9CLLkDYYooRLfkzEw-6" value="" style="shape=image;verticalLabelPosition=bottom;labelBackgroundColor=default;verticalAlign=top;imageAspect=0;image=data:image/png,iVBORw0KGgoAAAANSUhEUgAAAEgAAABKCAYAAAAYJRJMAAAAAXNSR0IArs4c6QAAAIRlWElmTU0AKgAAAAgABQESAAMAAAABAAEAAAEaAAUAAAABAAAASgEbAAUAAAABAAAAUgEoAAMAAAABAAIAAIdpAAQAAAABAAAAWgAAAAAAAACQAAAAAQAAAJAAAAABAAOgAQADAAAAAQABAACgAgAEAAAAAQAAAEigAwAEAAAAAQAAAEoAAAAA+Mn0GgAAAAlwSFlzAAAWJQAAFiUBSVIk8AAAEzBJREFUeAHtXAt0VMX5n7l3d5OQIE8DKGhqHgYCgWTXHlt8BKuEPKitVhAfRf1XSq22tbV6Wmz/aW3BVtH6qlpfVdRTbUWr2ST4hwL1rdkkBAIk2SCCWsDyEBLz2Nw7/993787N3ZtsnguYc7jn7M7rm29mfvf7Zr75ZnYZO/GcQOAEAicQOH4I8OPXdGxbbswumMzcfAFn/BxwzsbAxjPOk5hgRwRnHzIhKrlgFfph3Z8eLG/vb+vDHqBgdtF07uHLAUQR40zpa+CCsf2MiXv37Tlwz9c/fqe1L/phC9B6luea4ktajgH8FINU+xpot3IhdjKmXZ0aqHizW5ktY1gC1JhWcBIfpfyTc55njUXgYex1SNJqoXW+1czbPzlUw5pP8bLRXB8xTVH4hRjs1VC7FFlHMNGJOkvTK/1PyDxnOOwAenvy1xImTBxbwRg/Tw4Gg1yn6+KmjCr/NpnXU1jp9bpH80nfR1kJBj7OotH161Kryp6y0rbIsAOoyVv0OKTgf4wxkNRw9qu0Sv/vbWPqM7pt1rwUj6q+Cj4ziBhcQjoT52YEyt5zVh5WADXkFharivKaNQhd3Jxa5f+TlR5AJKym70BNp5nVRENb684ZWXV1HXY2fc76duLjHOeYR1bIPkCtVg0WHOKBpf6w3sHmQ3w+N3nyjPi4lBskfxnGVIJKGFOu8hVezwTPkg3ELOTsZNg4lxv8hDjYyVoyzgxs+G9f/Nen5MVPHp9UrAg9F/qoY+4KtLd/6JeSApW9Dap2J/EB6LufrSxNKWEMdOYTU4AafUX3Koz/RDI/WiHmjLvTAv6f98U/6CuYzYX6POyj0+y0WL12cE0sTK0uqyQAp4xL+ohzlkw04H0BeK+X9DFTsUZv0Q3HBhzWAdV4WA4gWtjkLZzBhbLGCQ7RQxLPYApf2zSrOH3Ozg1tgOUFyQdSlC/jFLrsicHGgzkFBZjs7pf10Ug5XkW5TMcs5FyITu2tjM3lO/rmyVdCdRJNOnEAav8XrHgqOCxB/ij6CJX9EeXfRtl6oHYT0eIl55h1zO8hq1hDbtFUTJ7vgdFIg6UQ7+/deyCvP2a8vSOxjNdl5Y+Nj3d/hkGThmiiQ8xKq/VvoTaacgp9kJ73ARCwEqFDbM/oUXpyiqKqdWYfRENqpf9MM06ADfHhCltigQNeOue3HU9waDhqHJ8cBoeSQQkOJWjegSR9QnFg5B7FkifpuhpeyWgOYmGpI4oYAIQJr4xMdpMdGAqxuiGn8DyZPh4h11zYkIYfwaZsy/yGZTVv9eZPQslEWdzaoRxQ1VCCTCPEnNT1DFnFiFUwt3Ae48rfsRIkURqi2w7QboR0V1EasH2eHihvMuPWN4d6ZnLemaDrbu3Tg8315oRplbPGnIKTmaJPsXI6FfGF0Bpm1r7eYuVFiQR9RZsxGU8PF3+g6fpvIe2qIvhvIDozjXwh3ksN+M9u9BbMVbi6Jpz3BvKsFzxkFSOmaVVlFZg8zwMy/6E0RDdO4cpjCncHzI8aDHoLLYu3LivLE/QWvawqfCuVu1RWM2V8Yt327Llfofr0NOUWXaKoyq4uHuDlVqsS3e766ll5o02q6N9C139pKz2LLHCFKa90gQNbR9eWmTTKbButMVfJdEwAImbpm8qrGWs/GytYeLKTTZgh58qPm3zFD8LEj4uPT1kNEC+2U9DS63Z7NhBIBI5QGJZeHm+noTjqnZqkjrjOme9Mp1eVv4a+3GRXf0lDk7POxZLU6op1xBIr1wJZhjn0XzJOYUxUzM6Q3u5INfFesM4288VIDCrdohFsF1o9TaYxgC3oRBroTTAghZhEyWqWJsheTJyYVLv4oM6O9tadU6U1LHn1FNZ752aqzLUUfcgRDD5FeBYxZT6SVrUmSPTB3IKFXFH/RnEAemTfnv0T7ItMzAGihuzPi1hUvN7iZwDKFfZ8iuNN3gGr9dcNOUUXqip/FVn2yZJ6vL2tTZ+TVVe2B66KEWP4pB2gmUB14d5Yll7lX07xwT51WXlJcQmJm0h6iQf6sxL9ucXOL2YqZmdqj0N2tUCg9LsY7PP2fAkO5WVU+9dqmvgmoq0WjQ0cyvMFAl+Ah7VZxYJQgrd/gUU/8AiPi098VoIDdA5i3vqDk81RlyDZoClJRQ9AjL/DmbgnNVBmbBBlOYU0YMxVT0DadrW1ioUkOfbyEiyHV3uLN6KcHPPASxzWNXYpAWyn6ytO86AyWnkcan2VpEW/FqdVlj4j0zIcEkDkoRvDxowIBNY2k6RIpkczbPJeeJrgcW/hzU+mdgBSJ+ao5R/vb1nhNBN66kejNz8XK+MjKDvLVv5QamUpzJLuz4AA2jz9GxMS4uIWonNzMeHlQMxPMVhCX/BWD+Krmuv6G0xXnk+tKW3s3lxscmjidTH3v7CkkdFnPOgCWcePQk1eSq8u34Y4hMJ8DJfH2MTz0d/rMODLaCmUZVCtJ1YF/EtKbC4OqwyRLkJ7riO+PeeiU9yK57do8bvg7XYUR0mKtXpIv9Vc/qOQDCGbLOI45n5RqlsEK8EO0XYCm61mlI/B6/uKs98ANIQ6v8CkvDKiriPRJ0Aw6BYD8QdAaG5GbQxIvLFwtqCcLOjuRy/CcDz9aVeg+bY5bEOnrWpMoiWYk670Fl6ncH4H3rW1feiLOfpdITT9Z5C0rX3R9gYQb/IW3403QOdO1gPmb2PYT3Odr19VU9pUYoomx8nmqVxVzsH2dwHeFq1IFmCQvI3trc3FWXUbmi1GMYyQZe6JT7kYinM5XBfnIEyOYA9xQR+2YWqoCInOpzOrKmojyntJRAUIknMXBmq3CerB56eYzMp64WcUYW+TitXoQXRonqRFFzfs3t9S0J+JVNYZbFiXVTgxTuXjdbdI5Lo48rmyb6dhJgyCYY8AwRt3BQzw5yx+gpWGmg9ekVn/1hErrx8RbBiXQQXvsE2KPa4Whv8mwXUf3vII1hb6SdqW13c72Qdzi6+HB+dqGIiPpVeXrXKWH610N4CC2XOTudtTD9UyNoTodHlVZen8wS7j2On/HMcR5LkzH63zwvAeyEiHwcGeiM+iDKjwDoCUZwcJ0nwLpPkuowJEUWfsxvSA/89G+ih/dbek3e7bLXCEaOKibdFgwaG+Y6d/F5bSf1jjUNTfy7gTHMqHWp7B4t0bgtPnGm6OCHAMAigv5w815hb+UPI5mmGEBMEIg682nlwWxp5I0/TvZFSXvUQdIKeTOylhEQaLTSjXmNDfO8T3vtgf3Q6bCQ1QNcNbByl5FaLSAqnIBWvTvYkVD9LaiQnWQ+2hnDa1mxCbb6TNL9qKWPs1zLyvgLAVoCIq3sWS/SDKwSZ2TwRAUIdroA5PmexFDXyzhgMbHsJL4bvBFgDObtsDaf8E9vOCtBr/27bsHqOQhL8AkOt7LCRwOLsWnfkveJIrJM5JR5N8e5tYFJegrAbd15zlRlqI5+DssrYPPdIMMDNCxSC8F8n6eCXGJI2BzVFV5QUnOESHgZzKXLxi28zCDFkvahhi92OQZJxFPmFwaB9EKyR4XgK6djsR0uvhXC+ivVnnkYP5hqlhJwjHdZ1F+HJ6IBlwlvS5GBXR8CyIqxHXNG0jRZCCb8e0aVC+A2eTD2CSHIGB3Ax1GI/ykR4Xp3nlMqKP9pDjHC7UWVwNuzvDhCLEN0c41QFSMDd/utBdPq4KrunsyGG+dw1U2QCXVlLYPXM8npR5iirCKsvzYP/sS6/2Pxmt/cHmm2iEawd9xYdpwEZStI0OhZSxbo9nh5kWLSG9IyOz+v8+pbRxfKIqHxhlTLTtqmwZeTSsZZP/8fuOkCCAM0J2hXboXu+8GTINfdoqwaE8Oj6BpX0IIgZzgMePn66OY1vYXov+GEbohFSohj/pXEh2JhaSZPQpDn07gvhHmLU3YVFZ19KplfbH4W/veqQEeYuPQG1oX8X0Q9ooJUmdgLPXBkpDvQ5roiVVXhhonJmfpbjdW4wy8wAuUaoB5R2LxzyNUJYBjPP61Z4QLQDryU694077y+6tbgRAkIhtQD2TKugi5E0PrKmCo307knIprtV1/W6uYg4Syi9Be5rBHJZ2aqDUvhwb2c6v+pnFp3K3Ps2Z31uatgpwwL9rpzHdLvGPQloiHP92mt7iWICwJ9SXpQXK7u+NjsoiVAxSUotJ2gBIYe5zUV6F86RbVA5/MXoDQLJxFGN63SxoRVtIyOOT6M2RGmCqr8EG3FLj6NS2Es5oYzlT5tTPmneWy4XbYbbdOwbcARn3w8Qu1bhW2RFSd3d49rQn6WNHq2pcBqykc9F3uiI8nfiYWqLchxU6b9/eA1fanfSyHRlGAAQ9WkeMzEKxCOF9GVVlpY3ewiXYUz0IjCLtE/K7CLGoP7tjXBS4ER0bGDiyl+HQvM6CGxssfCkBjaPo+ZCm3T61pmKng5ySX+BDi8oGfO4Iegu+hfsLKzBGQwgwnm8nTxxXvt6VNy/aJtqSAzAwreXEhE8xEA+l8RTJ3fvWnMLT4zi7RuBUEpXoduj7oZa2p6ZuX7ffJI3+Xe/NG+9iiUG8OsPQxLjgMjU6H71SuAQG5A7cQVxKHgIc/H0AHmOMItwMg/dwUVp1ebmdCamx6mY/Nmn0j51qZFzkZBMfAjhdRiu2QjAwezRTIgAipkFv8WMA6HsUx0C2QgR9vYkg0fX1NPqKn4RFeq1BJ1gt5ivamNLb79fzIuywXF/Ru1ARH1VAvz7DvuT8nm61hn3OAZOOVaUFSr09NdLoLf6Fwtlyq0ywH6Bf5KuOeCIsaSoRIe035iRGusqnJU8Y+9eIGgNMkJvCAgd1daHdjqDf4FBzub7iH9jACWkCJxlRrvxy4er20omH80kPlK4A0k905Ys7yZPRlTZj3QBKry3/mHH9FkkIkBY0+YpW0VGJzOtvGPQVfh/nug9LeqCyio6EZbo/ITnccUyEpdx8MPrfnVnlf0OmhxK2te28gXYHBg9Sf5frZ05+3QAigrTKskchRY93EfOr+GjlzcbcgrO78qLH6E3gciQO5RQSWZUooRYB7KMG7KKYPDbp0q4VS+xpDoVWRm95YCXG0bXGusDHvETuWzuXHgEigqpA6VIM6q+SmERcUdR3YBe9SpcLamcUmZNlmGBT9txEOkI2du1uz4fQzytlXUhONSb0/IF6JKm+orCFkg9Qvm+glrBVN0okrdr/gk2KxrjjTp9rJ41c5m0lWOs1FvBfiyUe92yUFbaVbT6usM1PhMIBjM9Q5TA+JwHAcVg+uwEO/98z+/YeXDqYib4E+KDz54O30TPchv+7EYntF/kT/oEx3UpsVcYvQFAqm+g2IFkgw/RA2T2doc5sSNM/SU9kPoWYn07GBw56fnJ3cEQNg3sVy+ziwYBD/C/Pnns6wDmJ4lDSPT1cwjKLbN+CkwUysAcv4U2rhsJmWHFEIiQITvaXZCFsD+i++WTWVtQj9i3y+7hc7Eqgmg9AYN1G3N+Bl1FsAYRv4JU859weSF4DCVVVNbcyVEnwYH/qGqtYv9axLm6CKXbeXW2CJAIgvK1Luqp1j03dVEYb1/+lTwnE/7KswmRPPI5WQtqR3bUdB2Lt7sDN00TZC7xlUmXrafQVXqzo/HwrQ0acZ2Iyv5dQaPywnBzwgq02qUoEQL3w6FZUApOmxHH7ohvREDOErrXhclOYS4S0Ig9OMiU2t/oVlxYfXmyprbZwg0bQ5xxkJz7WcRwP2/xL4vSj1T7Wli614pE+rUFL0NHqbATfFiUoRsEpiwsTmFbOoJMVa++n6a/oKt8VQe9MCGWfM6unNHh/VeZjU75NximMChCW8KfshMcyjk3oXXSxgH6djH68j7Zn05LpTowvRvxp6gvKNyKgz5AfbIi/CZCMB5vxf9sZRgUI/bnGTngs49haPIv2tobbfBnh7HD8JoTP4CPC6SEHhm+d8a8TI1gxIRi0fjtTxZ7ADF5lT38Z4q3tbQBLGBMnXpo3mFPUZVnHoINCUf5gY/OypcLhzAgJam8LXRSfoObDMzfgjamtkSFHOxQhpYfN2LJuL9SMXDAkPTAu+Epcnto4LbDmP0NtyLwQwS4w+MB403T8/t7xSNVzZH+5krTvG+Hh2wFSstGzGPyiiH5Pgl8praWpLczzz3Ca/dA58ggVcxZ+WdLZm/0HcWyz2NrqcP7V5Ilj/03ew8H0ERcfFuC0uEKCg7lnG7wEt/bEa1gARB2n34PAOLxZDgJWv8/lFpVQv8UlUDyZ31tIpyHYTj2iKDhKty5BiD34BWNxNC/BsFAx+6Dxo5gfwbC7N2JzLMRm0Dws2kOl9ntFVI/ctTm5BWfBb7KQC/49qKlx7mfwxN9TdHSK/PAWyshyfg07gGgADb7Ci3Bs/zRso0nOAWElhnEodqOsAyo5CoCc4dhUyyqvdTS3XutctWShDIclQNR5448BRqu348zrBoARscGUg+spxHyzFdbyr/Cb+9U9lTvzhi1AciC0wiV62OWwHC+GpMyOUCFJZPzTC1uHmyJ/w88WcN2v/4bmsAdIYhAOOa7uTWYed7IQmgeTcbP+ufiI/mXBQXcieQKBEwicQGBYIPD/sKZKVOb8sWwAAAAASUVORK5CYII=;" vertex="1" parent="1">
          <mxGeometry x="-276" y="400" width="40" height="40" as="geometry" />
        </mxCell>
        <mxCell id="Pws9CLLkDYYooRLfkzEw-8" value="Amazon Cognito" style="text;html=1;align=center;verticalAlign=middle;resizable=0;points=[];autosize=1;strokeColor=none;fillColor=none;fontSize=16;" vertex="1" parent="1">
          <mxGeometry x="-190" y="360" width="140" height="30" as="geometry" />
        </mxCell>
      </root>
    </mxGraphModel>
  </diagram>
</mxfile>
